<svg width="24" height="28" viewBox="0 0 24 28" fill="none" xmlns="http://www.w3.org/2000/svg">
<path d="M7 11C7.55 11 8 10.55 8 10V5C8 3.35 9.35 2 11 2H19C20.65 2 22 3.35 22 5V23C22 24.65 20.65 26 19 26H11C9.35 26 8 24.65 8 23V18C8 17.45 7.55 17 7 17C6.45 17 6 17.45 6 18V23C6 25.76 8.24 28 11 28H19C21.76 28 24 25.76 24 23V5C24 2.24 21.76 0 19 0H11C8.24 0 6 2.24 6 5V10C6 10.55 6.45 11 7 11Z" fill="black"/>
<path d="M1 14.9999H13.59L13.3 15.2899C12.91 15.6799 12.91 16.3099 13.3 16.6999C13.49 16.8999 13.74 16.9999 14 16.9999C14.26 16.9999 14.51 16.8999 14.71 16.7099L16.71 14.7099C17.1 14.3199 17.1 13.6899 16.71 13.2999L14.71 11.2999C14.32 10.9099 13.69 10.9099 13.3 11.2999C12.91 11.6899 12.91 12.3199 13.3 12.7099L13.59 12.9999H1C0.45 12.9999 0 13.4499 0 13.9999C0 14.5499 0.45 14.9999 1 14.9999Z" fill="black"/>
</svg>
