<svg fill="none" height="18" viewBox="0 0 28 20" width="24" xmlns="http://www.w3.org/2000/svg">
    <path
        d="M23 3H21.86C21.41 1.28 19.86 0 18 0H4C1.79 0 0 1.79 0 4V9C0 12.72 1.86 16.01 4.7 18H1C0.45 18 0 18.45 0 19C0 19.55 0.45 20 1 20H21C21.55 20 22 19.55 22 19C22 18.45 21.55 18 21 18H17.3C19.06 16.76 20.44 15.03 21.23 13H23C25.76 13 28 10.76 28 8C28 5.24 25.76 3 23 3ZM11 18C6.04 18 2 13.96 2 9V4C2 2.9 2.9 2 4 2H18C19.1 2 20 2.9 20 4V9C20 13.96 15.96 18 11 18ZM23 11H21.81C21.93 10.35 22 9.68 22 9V5H23C24.65 5 26 6.35 26 8C26 9.65 24.65 11 23 11Z"
        fill="black" />
</svg>