<svg width="90" height="74" viewBox="0 0 90 74" fill="none" xmlns="http://www.w3.org/2000/svg">
<path d="M11.227 33.5861C11.227 21.1951 21.309 11.1131 33.7 11.1131C46.091 11.1131 56.173 21.1951 56.173 33.5861H59.5402C59.5402 19.3361 47.9462 7.74609 33.6962 7.74609C19.4462 7.74219 7.8562 19.3361 7.8562 33.5861C7.8562 47.8321 19.4502 59.4301 33.7002 59.4301V56.0629C21.3092 56.0629 11.2272 45.9809 11.2272 33.5899L11.227 33.5861Z" fill="black"/>
<path d="M3.75784 33.5861C3.75784 17.0781 17.1878 3.6451 33.6988 3.6451C50.2068 3.6451 63.6398 17.0751 63.6398 33.5861H67.007C67.007 15.2191 52.062 0.2771 33.698 0.2771C15.335 0.273194 0.389038 15.2181 0.389038 33.5861C0.389038 51.9531 15.334 66.8951 33.698 66.8951V63.5279C17.19 63.5279 3.75704 50.0979 3.75704 33.5869L3.75784 33.5861Z" fill="black"/>
<path d="M32.012 32.887L21.032 43.867L23.4148 46.2498L35.3838 34.2808V21.0898H32.0127L32.012 32.887Z" fill="black"/>
<path d="M83.7731 50.301H80.2106V46.2776C80.2106 40.6253 71.0817 36.3635 58.9766 36.3635C46.8716 36.3635 37.7426 40.6252 37.7426 46.2776V52.4885C37.7426 64.1995 47.266 73.7225 58.9766 73.7225C66.0821 73.7225 72.3676 70.1991 76.2226 64.8241L85.5781 61.6913C87.9883 60.9062 89.6093 58.6757 89.6093 56.1366C89.6093 52.9178 86.9921 50.2968 83.7695 50.2968L83.7731 50.301ZM58.9761 39.731C69.2031 39.731 76.8431 43.188 76.8431 46.2779C76.8431 49.3678 69.2025 52.8248 58.9761 52.8248C48.7491 52.8248 41.1091 49.3678 41.1091 46.2779C41.1091 43.188 48.7497 39.731 58.9761 39.731ZM58.9761 70.356C49.1245 70.356 41.1091 62.3404 41.1091 52.489V51.7781C44.82 54.4773 51.2931 56.1961 58.9761 56.1961C66.6558 56.1961 73.1281 54.4773 76.8431 51.7781V52.489C76.8431 62.3406 68.8314 70.356 58.9761 70.356ZM84.5231 58.497L78.6403 60.4658C79.5035 58.3486 80.0153 56.0635 80.1481 53.6728H83.7691C85.1325 53.6728 86.2419 54.7783 86.2419 56.1455C86.2419 57.2158 85.5583 58.1649 84.5231 58.497Z" fill="black"/>
<path d="M58.9769 50.1949C66.1644 50.1949 71.9929 48.441 71.9929 46.2769C71.9929 44.1128 66.1648 42.3589 58.9769 42.3589C51.789 42.3589 45.9609 44.1128 45.9609 46.2769C45.9609 48.441 51.789 50.1949 58.9769 50.1949Z" fill="black"/>
</svg>
