<svg width="24" height="28" viewBox="0 0 24 28" fill="none" xmlns="http://www.w3.org/2000/svg">
<path d="M9.29004 18.7099C9.49004 18.8999 9.74004 18.9999 10 18.9999C10.26 18.9999 10.51 18.8999 10.71 18.7099L12 17.4099L13.29 18.6999C13.49 18.8999 13.74 18.9999 14 18.9999C14.26 18.9999 14.51 18.8999 14.71 18.7099C15.1 18.3199 15.1 17.6899 14.71 17.2999L13.41 15.9999L14.7 14.7099C15.09 14.3199 15.09 13.6899 14.7 13.2999C14.31 12.9099 13.68 12.9099 13.29 13.2999L12 14.5899L10.71 13.2999C10.32 12.9099 9.69004 12.9099 9.30004 13.2999C8.91004 13.6899 8.91004 14.3199 9.30004 14.7099L10.59 15.9999L9.30004 17.2899C8.90004 17.6799 8.90004 18.3199 9.29004 18.7099Z" fill="black"/>
<path d="M1 6H2.04L2.82 23.23C2.95 25.9 5.14 28 7.82 28H16.18C18.86 28 21.05 25.9 21.17 23.23L21.96 6H23C23.55 6 24 5.55 24 5C24 4.45 23.55 4 23 4H1C0.45 4 0 4.45 0 5C0 5.55 0.45 6 1 6ZM19.17 23.14C19.1 24.75 17.78 26 16.17 26H7.81C6.2 26 4.89 24.74 4.81 23.14L4.05 6H19.96L19.17 23.14Z" fill="black"/>
<path d="M15 0H9C8.45 0 8 0.45 8 1C8 1.55 8.45 2 9 2H15C15.55 2 16 1.55 16 1C16 0.45 15.55 0 15 0Z" fill="black"/>
</svg>
