<svg width="23" height="29" viewBox="0 0 23 29" fill="none" xmlns="http://www.w3.org/2000/svg">
<path d="M3.68 9.37L3.53 9.5C1.28 11.4 0 14.18 0 17.12V17.32C0 20.19 1.12 22.89 3.15 24.91C5.17 26.92 7.84 28.02 10.69 28.02C10.7 28.02 10.71 28.02 10.72 28.02H11.01C17.09 28 22.02 23.05 22.02 16.99V16.87C22.02 14.12 21.02 11.5 19.19 9.47C18.96 9.21 18.6 9.09 18.26 9.16C17.92 9.23 17.63 9.47 17.51 9.79C16.89 11.47 15.4 12.66 13.67 12.94L13.95 12.39C14.65 10.98 15.02 9.4 15.02 7.83C15.02 5.74 14.2 3.77 12.73 2.29C11.25 0.81 9.28 0 7.19 0H6.02C5.7 0 5.4 0.15 5.21 0.42C5.02 0.68 4.97 1.02 5.07 1.32L5.54 2.73C6.34 5.12 5.61 7.73 3.68 9.37ZM18.6 12C19.52 13.44 20.02 15.13 20.02 16.88V17C20.02 21.9 16.07 25.91 11.19 26.01C8.81 25.37 7.02 22.81 7.02 20C7.02 18.61 7.28 17.49 7.6 16.65C8.17 18.07 9.31 19.76 11.57 20.89C11.89 21.05 12.27 21.03 12.57 20.83C12.71 20.74 15.88 18.56 16 14.25C17.04 13.73 17.94 12.96 18.6 12ZM4.97 10.89C7.53 8.72 8.49 5.27 7.43 2.09L7.4 2C8.88 2.05 10.26 2.65 11.31 3.7C12.41 4.81 13.02 6.27 13.02 7.83C13.02 9.1 12.72 10.36 12.15 11.49L11.12 13.55C10.96 13.86 10.98 14.23 11.16 14.52C11.35 14.82 11.67 15 12.02 15H12.91C13.27 15 13.62 14.96 13.96 14.91C13.69 16.92 12.56 18.21 11.92 18.8C9.09 17.05 9.02 14.13 9.02 14C9.02 13.6 8.78 13.23 8.4 13.08C8.03 12.92 7.6 13.01 7.31 13.3C7.22 13.39 5.02 15.64 5.02 20C5.02 21.84 5.6 23.58 6.57 24.97C5.85 24.58 5.18 24.08 4.58 23.49C2.93 21.85 2.02 19.65 2.01 17.31V17.11C2.01 14.76 3.03 12.54 4.83 11.02L4.97 10.89Z" fill="black"/>
</svg>
