<svg width="24" height="28" viewBox="0 0 24 28" fill="none" xmlns="http://www.w3.org/2000/svg">
<path d="M13 0H5C2.24 0 0 2.24 0 5V23C0 25.76 2.24 28 5 28H13C15.76 28 18 25.76 18 23V18C18 17.45 17.55 17 17 17C16.45 17 16 17.45 16 18V23C16 24.65 14.65 26 13 26H5C3.35 26 2 24.65 2 23V5C2 3.35 3.35 2 5 2H13C14.65 2 16 3.35 16 5V10C16 10.55 16.45 11 17 11C17.55 11 18 10.55 18 10V5C18 2.24 15.76 0 13 0Z" fill="black"/>
<path d="M8 13.9999C8 14.5499 8.45 14.9999 9 14.9999H20.59L20.3 15.2899C19.91 15.6799 19.91 16.3099 20.3 16.6999C20.49 16.8999 20.74 16.9999 21 16.9999C21.26 16.9999 21.51 16.8999 21.71 16.7099L23.71 14.7099C24.1 14.3199 24.1 13.6899 23.71 13.2999L21.71 11.2999C21.32 10.9099 20.69 10.9099 20.3 11.2999C19.91 11.6899 19.91 12.3199 20.3 12.7099L20.59 12.9999H9C8.45 12.9999 8 13.4499 8 13.9999Z" fill="black"/>
</svg>
